<?xml version="1.0" encoding="utf-8" ?>
<svg baseProfile="tiny" height="1000" version="1.2" width="1000" xmlns="http://www.w3.org/2000/svg" xmlns:ev="http://www.w3.org/2001/xml-events" xmlns:xlink="http://www.w3.org/1999/xlink"><defs /><path d="M 729.850307933924,323.52338032995516 L 723.2676248203078,317.8449631540059 L 717.0583422522262,311.76047890403675 L 711.2474628190533,305.29442765064164 L 705.8583848813529,298.4728459000655 L 700.9128083539385,291.32320175438304 L 696.4306473279757,283.8742843071466 L 692.4299498839652,276.15608771986723 L 688.9268254184926,268.1996904461125 L 685.9353797773747,260.03713008954304 L 683.4676584563961,251.70127439978978 L 681.5335980983493,243.22568892562717 L 680.1409864816819,234.6445018583546 L 679.2954311618606,225.9922666096154 L 679.0003368917246,217.3038226770037 L 679.2568919117483,208.61415535770402 L 680.0640631654155,199.95825487504732 L 681.4186004589736,191.37097548523107 L 683.3150495488171,182.88689513153122 L 685.7457741038011,174.54017621112888 L 688.7009864540516,166.36442801519416 L 692.1687870024581,158.39257139613264 L 696.1352121401507,150.6567062069321 L 700.5842904730249,143.18798204638415 L 705.4981071329087,136.0164728306436 L 710.8568759144139,129.1710556961828 L 716.6390189470011,122.67929472175479 L 722.8212535814497,116.56732993757709 L 729.3786861408678,110.85977206865572 L 736.2849121587437,105.57960343608181 L 743.5121227004128,100.74808541533612 L 751.0312163398228,96.38467282423395 L 758.8119163407049,92.50693558524048 L 766.8228925703052,89.13048797759392 L 775.0318876547714,86.26892576411407 L 783.4058468682116,83.9337714458641 L 791.9110512324104,82.13442786510547 L 800.5132532912519,80.87814034337072 L 809.1778150131387,80.16996750711107 L 817.8698472661201,80.0127609183929 L 826.5543503041117,80.40715359266395 L 835.1963546985207,81.35155744982333 L 843.7610621477927,82.84216970885976 L 852.2139855978894,84.87298820030833 L 860.5210881094839,87.43583553486877 L 868.6489199127021,90.52039203086579 L 876.5647530975401,94.114237267965 L 884.2367133976066,98.20290009982193 L 891.6339085365437,102.76991692428065 L 898.7265526203208,107.79689797648928 L 905.4860860745173,113.26360137799226 L 911.885290643648,119.14801464363052 L 917.8983989894726,125.42644331805036 L 923.5011984469716,132.07360638491218 L 928.6711285202027,139.06273806462053 L 933.3873717254559,146.36569559067183 L 937.630937415912,153.95307253064178 L 941.3847382502755,161.79431719551062 L 944.6336589974674,169.85785566053153 L 947.3646174003247,178.11121890228125 L 949.5666168532342,186.5211735399585 L 951.2307906815809,195.05385565447853 L 952.3504378447177,203.67490714652303 L 952.9210499186912,212.3496140844801 L 952.9403292500735,221.04304648519414 L 952.4081982078018,229.72019896468035 L 951.3267994957707,238.34613169245077 L 949.7004875249208,246.88611108187996 L 947.5358108795622,255.305749650099 L 944.8414859485363,263.5711444842527 L 941.6283618273951,271.64901375656376 L 937.9093766329227,279.50683073850587 L 933.6995054059042,287.1129547744604 L 929.0156998119232,294.4367586874687 L 923.8768198829866,301.448752104064 L 918.3035580748326,308.1207002015972 L 912.3183559457146,314.4257373999018 L 905.9453137921669,320.3384755395039 L 899.2100936056158,325.8351061107795 L 892.1398157405993,330.89349612241955 L 884.7629497106687,335.4932772231743 L 877.1091995517081,339.6159277180152 L 869.2093842142638,343.24484714846324 L 861.0953134665092,346.3654231367767 L 852.7996598075349,348.96509022483826 L 844.3558269067264,351.0333804708207 L 835.7978150989768,352.5619655998936 L 827.1600844773391,353.54469053924674 L 818.4774161343935,353.97759820239605 L 809.7847721110633,353.85894542297405 L 801.1171546168159,353.18920997384566 L 792.5094650881189,351.9710886432857 L 783.9963636526742,350.20948637596393 L 775.6121295653162,347.91149652246435 L 767.3905231775515,345.08637227686575 L 759.3646499965386,341.74548941739505 L 751.5668273808961,337.9023005001839 L 744.0284544101037,333.57228069057186 L 736.7798854514936,328.7728654500793 L 729.8503079339241,323.5233803299553 Z" fill="none" stroke="black" /><path d="M 750.149480142508,587.6388256036863 L 745.5612794106645,592.8991339049848 L 740.648686840236,597.8578498292304 L 735.4314837076344,602.4950063775442 L 729.9306778484954,606.7919313571617 L 724.1684190665387,610.7313225677627 L 718.1679099441259,614.2973174713259 L 711.9533124136506,617.4755570649701 L 705.5496504659645,620.2532436995917 L 698.9827093875986,622.6191926114803 L 692.2789319325142,624.5638769594146 L 685.4653118464666,626.0794661858897 L 678.5692851727177,627.1598575480083 L 671.6186197767729,627.8007006910726 L 664.6413035349875,627.9994151659271 L 657.6654316372671,627.7552008195165 L 650.7190934576533,627.0690410168199 L 643.8302594483285,625.9436986811871 L 637.0266685124773,624.3837051690209 L 630.3357163095133,622.3953420236049 L 623.7843449424279,619.9866156815453 L 617.3989344714507,617.1672252336767 L 611.2051966908576,613.9485233702462 L 605.2280715966498,610.3434706676372 L 599.4916269619926,606.3665834007022 L 594.0189614247872,602.0338750908475 L 588.8321114776091,597.3627920252346 L 583.951962734529,592.372143006739 L 579.3981658321172,587.0820236175397 L 575.1890573032656,581.5137353013023 L 571.3415857424411,575.6896995897837 L 567.8712435596781,569.6333678192369 L 564.7920045981108,563.3691267001576 L 562.1162678662395,556.9222001206074 L 559.8548076114986,550.3185475785194 L 558.0167299361657,543.5847596519627 L 556.6094361303014,536.747950928269 L 555.6385928693662,529.8356508231597 L 555.1081093965189,522.8756927295047 L 555.0201217814738,515.8961019420734 L 555.374984319302,508.92498280956363 L 556.1712681038101,501.9904055683089 L 557.4057667812415,495.1202933133441 L 559.0735094611306,488.34230956195654 L 561.1677807323249,481.68374686246597 L 563.6801477035755,475.1714168967649 L 566.6004939598131,468.83154251913913 L 569.9170602973821,462.689652166088 L 573.6164920742025,456.77047706232145 L 577.6838929842003,451.0978516368464 L 582.1028850394749,445.69461755013333 L 586.8556745186753,440.58253171881177 L 591.9231236160364,435.7821787082454 L 597.2848275025674,431.31288784575327 L 602.9191964890974,427.19265538823026 L 608.8035429603331,423.4380720575724 L 614.9141727298781,420.06425623569544 L 621.2264804483593,417.08479308814685 L 627.7150486804841,414.51167986143884 L 634.3537502520812,412.35527757437103 L 641.1158534550104,410.62426929786477 L 647.9741296863155,409.32562519130096 L 654.900963088199,408.4645744361484 L 661.8684617473341,408.0445841798955 L 668.8485700057558,408.0673455750713 L 675.8131814310932,408.53276696957096 L 682.7342519912527,409.4389742757063 L 689.5839129778369,410.7823185164959 L 696.3345832235984,412.5573905188069 L 702.9590801620643,414.75704269418674 L 709.4307292821385,417.3724178196787 L 715.7234715369424,420.39298470273263 L 721.8119682744003,423.8065805866008 L 727.6717032670474,427.5994601254663 L 733.2790814302253,431.75635073209935 L 738.61152383116,436.2605140751756 L 743.6475586063552,441.0938134786289 L 748.3669074212083,446.2367869516444 L 752.7505671237069,451.66872555522684 L 756.780886263414,457.36775678978836 L 760.4416361676303,463.3109326679849 L 763.7180762885304,469.4743221181621 L 766.5970135581464,475.8331073463337 L 769.0668555121966,482.36168376867954 L 771.1176569688474,489.0337631121673 L 772.7411600744505,495.8224792681497 L 773.9308275550047,502.7004964727014 L 774.6818690394518,509.64011937809306 L 774.9912603488093,516.6134045721814 L 774.8577556734721,523.5922730966674 L 774.2818925896481,530.548623511151 L 773.2659898947287,537.4544450477136 L 771.8141382703096,544.2819304003943 L 769.9321838104606,551.0035876953963 L 767.6277044815672,557.5923511911594 L 764.9099796085354,564.0216902625493 L 761.7899525102248,570.265716230321 L 758.2801864345661,576.2992866056918 L 754.3948139707959,582.0981063302714 L 750.149480142508,587.6388256036863 Z" fill="none" stroke="black" /><path d="M 477.12501506643315,811.1143685067564 L 476.4460113042762,806.2756760917157 L 476.0752634353437,801.4036604499021 L 476.0142643304506,796.5179394687574 L 476.26325961146307,791.638186222288 L 476.8212466622658,786.784049754539 L 477.68597866594337,781.9750759598287 L 478.85397365191864,777.230628878331 L 480.32052851661956,772.5698127239202 L 482.0797379612176,768.011394958244 L 484.1245182701811,763.5737307207797 L 486.4466358348986,759.2746889191656 L 489.03674030751375,755.1315802774168 L 491.8844022514766,751.1610876317492 L 494.9781551372034,747.3791987546862 L 498.305541513744,743.8011419779418 L 501.8531631705405,740.4413248733031 L 505.6067350872919,737.3132762384237 L 509.55114295468917,734.4295916211313 L 513.6705040344045,731.801882601601 L 517.9482311132729,729.4407300366211 L 522.3670992941447,727.3556414542165 L 526.9093153544676,725.5550127701897 L 531.5565893933134,724.0460944807305 L 536.2902084783542,722.8349624672272 L 541.0911119962359,721.9264935308369 L 545.9399684029408,721.3243457553277 L 550.817253065093,721.0309437772676 L 555.7033268787652,721.0474690228674 L 560.578515349219,721.3738549507959 L 565.4231878131511,722.0087873201172 L 570.2178364844465,722.9497094822755 L 574.9431550051472,724.192832675816 L 579.5801161853419,725.7331512823914 L 584.1100486189446,727.5644629826186 L 588.5147118668566,729.6793937306309 L 592.7763699047771,732.0694274467577 L 596.8778625399129,734.7249403087717 L 600.8026745090186,737.6352395036241 L 604.5350019795327,740.7886062836295 L 608.059816186033,744.1723431537257 L 611.3629239457712,747.7728249998058 L 614.43102480961,751.5755539522432 L 617.251764618238,755.565217763696 L 619.8137852480083,759.7257514661225 L 622.1067703460941,764.0404020587373 L 624.1214868708,768.4917959664331 L 625.849822269763,773.0620089970354 L 627.2848171463364,777.732638515698 L 628.4206932826248,782.484877545819 L 629.2528769063279,787.2995904980971 L 629.7780171077069,792.1573902227967 L 629.9939993325158,797.0387160749563 L 629.8999538965651,801.9239126782028 L 629.4962594876324,806.7933090700149 L 628.7845416406212,811.6272979097455 L 627.7676661921049,816.4064144304634 L 626.4497277406149,821.1114148166993 L 624.8360331591372,825.723353692498 L 622.933080226208,830.223660407762 L 620.7485314616525,834.5942138157043 L 618.2911832723231,838.8174152403102 L 615.5709305320723,842.876259339996 L 612.598726738589,846.7544025821155 L 609.3865399075286,850.4362290525995 L 605.9473043815385,853.9069133357291 L 602.294868748225,857.1524802108523 L 598.4439400767792,860.1598609256657 L 594.4100246977997,862.9169458194671 L 590.2093657647724,865.4126330844849 L 585.858877848624,867.6368734689403 L 581.3760788287155,869.5807107418369 L 576.7790193545239,871.2363177565419 L 572.0862101620485,872.5970279679433 L 567.3165475376093,873.6573622762741 L 562.4892372291724,874.4130510895128 L 557.6237171115808,874.8610515155243 L 552.7395789170931,874.999559614712 L 547.8564893463922,874.8280176638459 L 542.9941108777233,874.3471164018177 L 538.1720225930337,873.5587922482785 L 533.4096413399195,872.4662195063602 L 528.7261435468347,871.0737975808779 L 524.1403880063802,869.3871332634791 L 519.670839937604,867.4130181560721 L 515.3354966330795,865.1594013234427 L 511.15181499016194,862.635357285176 L 507.13664121822285,859.8510494757687 L 503.3061430049113,856.8176893200648 L 499.67574441458174,853.547491088806 L 496.26006378103085,850.0536227160734 L 493.07285484462705,846.3501527766651 L 490.12695137085126,842.4519938369101 L 487.4342154732544,838.3748424070283 L 485.0054898489116,834.1351157368223 L 482.85055411870866,829.7498857092081 L 480.97808544825983,825.2368100977673 L 479.39562360802483,820.6140614651249 L 478.10954061331444,815.900253988455 L 477.12501506643315,811.1143685067563 Z" fill="none" stroke="black" /><path d="M 298.61203909601556,110.16645208147162 L 306.1718730554137,117.68290051283859 L 313.23976400181914,125.66369020338878 L 319.7872520329585,134.0766853298081 L 325.7879727254257,142.8880097300368 L 331.217763294909,152.06218331061717 L 336.054759891196,161.56226491250774 L 340.2794856361811,171.35000106009207 L 343.87492905038005,181.38597999442442 L 346.826612552153,191.6297903704725 L 349.1226507538168,202.04018397934112 L 350.7537983199056,212.57524184025064 L 351.71348719487423,223.19254299347836 L 351.99785305033924,233.84933531459063 L 351.60575084536606,244.5027076621585 L 350.5387594371439,255.1097626657799 L 348.80117522348576,265.6277894586491 L 346.3999948427506,276.0144356591434 L 343.3448870008498,286.2278779089154 L 339.6481535387816,296.2269902807959 L 335.3246798974587,305.9715098783879 L 330.39187517929145,315.4221989605395 L 324.8696020478774,324.5410029378784 L 318.7800967480648,333.291203605213 L 312.14787956844305,341.63756699278485 L 304.9996561067947,349.54648524102913 L 297.364209736079,356.98611192756346 L 289.27228570394755,363.92649030149107 L 280.75646733248345,370.3396739086636 L 271.85104481666383,376.199839122188 L 262.59187714984625,381.48338912505824 L 253.01624773225967,386.16904892620886 L 243.16271424390982,390.237951027395 L 233.07095338641096,393.6737113959489 L 222.78160111891236,396.4624954374965 L 212.33608903143224,398.5930737029866 L 201.77647751446872,400.0568671057182 L 191.14528639665141,400.8479814662953 L 180.4853237323991,400.9632312464069 L 169.83951342899334,400.40215237586506 L 159.25072240715352,399.16700412125215 L 148.7615879910768,397.2627599886516 L 138.41434622298175,394.6970876970944 L 128.2506617934746,391.4803183033605 L 118.31146027254361,387.62540460245975 L 108.6367633167343,383.147868971298 L 99.26552751606371,378.0657408655436 L 90.23548752958187,372.399484221373 L 81.58300414121801,366.17191505442213 L 73.34291784773671,359.40810958774466 L 65.5484085683552,352.135303278712 L 58.23086204091783,344.38278115143896 L 51.41974344260811,336.18175987632765 L 45.1424787440796,327.56526207155355 L 39.424344274751775,318.56798333263737 L 34.28836494395273,309.2261525255271 L 29.755221527735586,299.57738590574183 L 25.843167394693012,289.6605356509882 L 22.56795500608328,279.5155334171505 L 19.942772486229757,269.1832295476098 L 17.978190518598012,258.7052285833264 L 16.682119781384728,248.12372173603814 L 16.059779094008576,237.4813169991422 L 16.11367440276635,226.82086758034362 L 16.8435886902717,216.1852993469127 L 18.246582849307572,205.61743797836766 L 20.31700751757353,195.1598365225794 L 23.04652582567394,184.85460404966483 L 26.424146966748566,174.74323609362472 L 30.43627045257267,164.8664475644738 L 35.06674087792297,155.26400880366765 L 40.296912972691786,145.97458544297598 L 46.10572667981077,137.03558271162717 L 52.46979195666532,128.48299481865598 L 59.36348295854337,120.3512600169239 L 66.75904122486513,112.67312193243306 L 74.6266874527085,105.47949771729847 L 82.93474140755069,98.79935355728963 L 91.64974948839141,92.65958803522366 L 100.73661943359716,87.08492381986579 L 110.15876162505197,82.09780811646871 L 119.87823642163825,77.71832227979797 L 129.85590692877742,73.9641009536061 L 140.05159658889414,70.85026106214448 L 150.42425095823228,68.38934093964562 L 160.93210301861018,66.59124984287641 L 171.53284135846195,65.46322805005843 L 182.1837805459566,65.00981770682324 L 192.84203300817,65.2328445365946 L 203.46468172419964,66.13141048904498 L 214.00895303686403,67.70189735622708 L 224.43238888712196,69.93798134182032 L 234.69301777769118,72.83065852482665 L 244.74952377745464,76.36828111518258 L 254.56141288613162,80.53660435529827 L 264.0891760893277,85.31884387866995 L 273.2944484473874,90.69574329459829 L 282.1401635774687,96.64565172687858 L 290.59070290678267,103.14461099423718 L 298.6120390960155,110.16645208147158 Z" fill="none" stroke="black" /><path d="M 491.44210677269524,333.0308066178957 L 496.6621792199589,336.5259477371411 L 501.65006642301074,340.3451294620339 L 506.3856839205275,344.47297329572405 L 510.8499630522537,348.89285786799024 L 515.0249277417652,353.58698586363056 L 518.8937668797851,358.53645568596994 L 522.4409020165873,363.7213375669182 L 525.652050090915,369.12075381711253 L 528.5142809428279,374.71296289300375 L 531.0160693788916,380.47544694237865 L 533.1473415800649,386.38500247580316 L 534.8995156654128,392.41783379888494 L 536.2655362483126,398.5496488291363 L 537.2399028460053,404.7557569116163 L 537.8186920280988,411.0111682394838 L 537.9995732148367,417.2906944791301 L 537.7818180615209,423.5690501947078 L 537.1663033912985,429.82095466365666 L 536.1555076645044,436.02123367325106 L 534.7535009987764,442.14492088826916 L 532.9659287801279,448.1673583816134 L 530.7999889309708,454.0642959230798 L 528.2644029266228,459.8119886264762 L 525.3693806770041,465.3872925618985 L 522.1265794149338,470.76775794816734 L 518.5490567565678,475.931719550174 L 514.651218122987,480.85838391713537 L 510.4487587346509,485.5279131104811 L 505.9586004122845,489.9215045842309 L 501.19882343867874,494.02146689621065 L 496.18859375577256,497.8112909452461 L 490.9480857901696,501.27571644748673 L 485.4984012178429,504.4007933841822 L 479.8614839951329,507.173938173485 L 474.06003199818065,509.5839843400928 L 468.1174056265916,511.62122747870336 L 462.057533739351,513.2774643302299 L 455.90481730175503,514.5460258134297 L 449.68403113133473,515.4218038789408 L 443.42022413841084,515.9012720775937 L 437.13861846297215,515.9824997601779 L 430.86450791402,515.6651598514843 L 424.6231561203269,514.9505301673223 L 418.43969480271977,513.8414882692057 L 412.3390225775105,512.3424998774287 L 406.34570469855555,510.4596008891867 L 400.4838741416496,508.20037307414765 L 394.7771344295487,505.5739135453424 L 389.2484645889151,502.59079812830095 L 383.92012662188756,499.2630387759357 L 378.8135758648555,495.60403520064665 L 373.94937459539244,491.6285209184091 L 369.3471092352206,487.35250392210435 L 365.02531148260493,482.7932022229833 L 361.00138369174346,477.9689745198111 L 357.2915287996297,472.89924627486727 L 353.9106850825441,467.60443149446513 L 350.87246600488754,462.1058505289536 L 348.18910540256536,456.42564422319083 L 345.87140822164764,450.5866847631766 L 343.9287070106652,444.61248357783245 L 342.3688243417304,438.52709666677407 L 341.1980413118,432.3550277352934 L 340.42107225091524,426.12112952658407 L 340.0410457392577,419.850503748517 L 340.0594920094619,413.5683999979222 L 340.4763367849082,407.3001140893737 L 341.28990157880867,401.07088619787345 L 342.4969104528809,394.9057992255725 L 344.09250320839527,388.82967780177984 L 346.0702549564798,382.86698832293973 L 348.42220198888015,377.04174043508937 L 351.13887384500185,371.3773903554882 L 354.20933144611286,365.8967464227095 L 357.62121114315204,360.62187725551195 L 361.36077450078153,355.57402289029903 L 365.41296361721527,350.7735092549913 L 369.7614617570768,346.23966632368627 L 374.3887590531318,341.990750281677 L 379.276223012345,338.04387001423606 L 384.4041735423526,334.41491821517366 L 389.7519621962482,331.118507392569 L 395.2980553165917,328.1679110293565 L 401.0201207438459,325.57501013569674 L 406.8951177401032,323.3502454083399 L 412.8993897660029,321.5025751896264 L 419.0087597372671,320.0394393954032 L 425.1986273772856,318.9667295571091 L 431.4440682737474,318.28876509865654 L 437.71993424045195,318.0082759436364 L 444.0009545801786,318.1263915228791 L 450.2618378408669,318.6426362266352 L 456.47737365536545,319.5549313196879 L 462.62253425468396,320.8596033116865 L 468.67257524598506,322.5513987489949 L 474.6031352495212,324.6235053684959 L 480.39033399331237,327.06757952816986 L 486.01086847057263,329.8737798039963 L 491.4421067726953,333.0308066178957 Z" fill="none" stroke="black" /></svg>